<svg width="178" height="43" viewBox="0 0 178 43" fill="none" xmlns="http://www.w3.org/2000/svg">
    <path d="M67.7998 14.9316L63.9998 26.5316H61.0998L58.5998 18.7316L55.9998 26.5316H53.0998L49.2998 15.0316H52.0998L54.6998 23.1316L57.3998 15.0316H59.8998L62.4998 23.2316L65.1998 15.0316H67.7998V14.9316Z" fill="#F58255"/>
    <path d="M68.3994 20.7314C68.3994 17.3314 71.0994 14.7314 74.6994 14.7314C78.2994 14.7314 80.9994 17.2314 80.9994 20.7314C80.9994 24.1314 78.2994 26.7314 74.6994 26.7314C71.0994 26.7314 68.3994 24.1314 68.3994 20.7314ZM78.3994 20.7314C78.3994 18.5314 76.7994 17.0314 74.7994 17.0314C72.6994 17.0314 71.1994 18.5314 71.1994 20.7314C71.1994 22.9314 72.7994 24.4314 74.7994 24.4314C76.7994 24.4314 78.3994 22.9314 78.3994 20.7314Z" fill="#F58255"/>
    <path d="M90.3996 26.5316L88.1996 23.3316H85.7996V26.5316H83.0996V14.9316H88.0996C91.1996 14.9316 93.0996 16.5316 93.0996 19.1316C93.0996 20.8316 92.1996 22.1316 90.6996 22.7316L93.2996 26.4316L90.3996 26.5316ZM87.8996 17.1316H85.6996V21.1316H87.8996C89.4996 21.1316 90.3996 20.3316 90.3996 19.1316C90.3996 17.8316 89.5996 17.1316 87.8996 17.1316Z" fill="#F58255"/>
    <path d="M95.2002 14.9316H97.9002V24.3316H103.7V26.5316H95.2002V14.9316Z" fill="#F58255"/>
    <path d="M105.2 14.9316H110.4C114.2 14.9316 116.8 17.2316 116.8 20.7316C116.8 24.2316 114.2 26.5316 110.4 26.5316H105.2V14.9316ZM110.3 24.3316C112.6 24.3316 114.1 22.9316 114.1 20.7316C114.1 18.5316 112.6 17.1316 110.3 17.1316H107.9V24.3316H110.3Z" fill="#F58255"/>
    <path d="M133.5 19.1316C133.5 21.7316 131.6 23.3316 128.5 23.3316H126.2V26.5316H123.5V14.9316H128.5C131.5 14.9316 133.5 16.5316 133.5 19.1316ZM130.8 19.1316C130.8 17.8316 130 17.1316 128.3 17.1316H126.1V21.1316H128.3C129.9 21.1316 130.8 20.4316 130.8 19.1316Z" fill="#F58255"/>
    <path d="M135.2 21.4316V14.9316H137.9V21.3316C137.9 23.5316 138.9 24.4316 140.5 24.4316C142.1 24.4316 143.1 23.5316 143.1 21.3316V14.9316H145.7V21.4316C145.7 24.8316 143.8 26.7316 140.5 26.7316C137.2 26.7316 135.2 24.8316 135.2 21.4316Z" fill="#F58255"/>
    <path d="M148.3 14.9316H151V24.3316H156.8V26.5316H148.3V14.9316Z" fill="#F58255"/>
    <path d="M157.3 25.3314L158.2 23.3314C159.2 24.0314 160.6 24.5314 162 24.5314C163.6 24.5314 164.2 24.0314 164.2 23.3314C164.2 21.1314 157.5 22.6314 157.5 18.3314C157.5 16.3314 159.1 14.7314 162.4 14.7314C163.9 14.7314 165.3 15.0314 166.4 15.7314L165.6 17.7314C164.5 17.1314 163.4 16.8314 162.4 16.8314C160.8 16.8314 160.2 17.4314 160.2 18.1314C160.2 20.2314 166.9 18.8314 166.9 23.0314C166.9 24.9314 165.3 26.6314 162 26.6314C160.2 26.7314 158.3 26.1314 157.3 25.3314Z" fill="#F58255"/>
    <path d="M177.7 24.3316V26.4316H168.8V14.9316H177.5V17.0316H171.4V19.5316H176.8V21.6316H171.4V24.3316H177.7Z" fill="#F58255"/>
    <path fill-rule="evenodd" clip-rule="evenodd" d="M40.3997 12.7317C38.5997 13.5317 36.9997 14.2317 35.1997 15.0317C34.8997 15.0317 34.7997 14.6317 34.5997 14.4317C34.5997 14.2317 34.3997 14.0317 34.4997 13.9317C36.0997 12.9317 37.8997 11.8317 39.4997 11.0317L39.5997 11.1317C39.7997 11.5317 40.0997 12.1317 40.2997 12.6317L40.3997 12.7317Z" fill="#FEC745"/>
    <path fill-rule="evenodd" clip-rule="evenodd" d="M22.0246 0.1C21.9246 2.1 21.9246 3.8 21.8246 5.7C21.7246 6 21.3246 5.9 21.1246 6C20.9246 5.9 20.7246 6 20.6246 5.8C20.3246 3.9 20.2246 1.9 20.2246 0.1L20.3246 0H21.9246L22.0246 0.1Z" fill="#FEC745"/>
    <path fill-rule="evenodd" clip-rule="evenodd" d="M19.1002 0.131836C19.3002 2.13184 19.5002 3.83184 19.7002 5.73184C19.6002 6.03184 19.2002 5.93184 19.0002 6.13184C18.8002 6.13184 18.6002 6.23184 18.5002 6.03184C18.0002 4.23184 17.6002 2.13184 17.2002 0.431836L17.3002 0.331836C17.8002 0.231836 18.4002 0.131836 18.9002 0.131836H19.1002Z" fill="#FEC745"/>
    <path fill-rule="evenodd" clip-rule="evenodd" d="M16.2 0.631836C16.6 2.53184 17.1 4.23184 17.6 6.13184C17.6 6.43184 17.2 6.43184 17 6.53184C16.8 6.53184 16.6 6.63184 16.5 6.53184C15.8 4.83184 15.1 2.83184 14.5 1.13184L14.6 1.03184C15.1 0.831836 15.7 0.631836 16.2 0.631836Z" fill="#FEC745"/>
    <path fill-rule="evenodd" clip-rule="evenodd" d="M13.4002 1.53174C14.1002 3.33174 14.8002 4.93174 15.5002 6.73174C15.5002 7.03174 15.1002 7.13174 14.9002 7.23174C14.7002 7.23174 14.5002 7.43174 14.4002 7.33174C13.4002 5.73174 12.5002 3.93174 11.7002 2.23174L11.8002 2.13174C12.2002 1.93174 12.8002 1.63174 13.4002 1.53174Z" fill="#FEC745"/>
    <path fill-rule="evenodd" clip-rule="evenodd" d="M10.8002 2.73145C11.7002 4.43145 12.7002 5.93144 13.6002 7.63144C13.6002 7.93145 13.3002 8.03145 13.1002 8.23145C12.9002 8.23145 12.8002 8.43145 12.6002 8.33145C11.4002 6.93145 10.2002 5.23145 9.2002 3.73145V3.63145C9.6002 3.33145 10.1002 3.03145 10.6002 2.73145H10.8002Z" fill="#FEC745"/>
    <path fill-rule="evenodd" clip-rule="evenodd" d="M8.30039 4.33154C9.50039 5.93154 10.6004 7.23154 11.8004 8.83154C11.9004 9.13154 11.5004 9.33154 11.4004 9.53154C11.2004 9.63154 11.1004 9.83154 10.9004 9.73154C9.50039 8.43154 8.10039 6.93154 6.90039 5.63154V5.53154C7.20039 5.23154 7.70039 4.73154 8.10039 4.43154H8.30039V4.33154Z" fill="#FEC745"/>
    <path fill-rule="evenodd" clip-rule="evenodd" d="M6.0998 6.33154C7.4998 7.73154 8.7998 8.83154 10.1998 10.2315C10.2998 10.4315 9.9998 10.7315 9.89981 10.9315C9.69981 11.0315 9.5998 11.2315 9.39981 11.2315C7.89981 10.1315 6.1998 8.83154 4.7998 7.73154V7.63154C5.1998 7.13154 5.5998 6.63154 6.0998 6.33154Z" fill="#FEC745"/>
    <path fill-rule="evenodd" clip-rule="evenodd" d="M4.2002 8.53174C5.8002 9.73174 7.2002 10.6317 8.8002 11.8317C9.0002 12.0317 8.70019 12.3317 8.60019 12.6317C8.5002 12.7317 8.4002 12.9317 8.2002 12.9317C6.5002 12.1317 4.7002 11.0317 3.2002 10.1317V10.0317C3.4002 9.63174 3.8002 9.03174 4.1002 8.63174L4.2002 8.53174Z" fill="#FEC745"/>
    <path fill-rule="evenodd" clip-rule="evenodd" d="M2.6998 11.0317C4.3998 12.0317 5.9998 12.7317 7.6998 13.7317C7.8998 13.9317 7.5998 14.2317 7.5998 14.5317C7.4998 14.6317 7.3998 14.9317 7.1998 14.9317C5.3998 14.3317 3.4998 13.5317 1.7998 12.8317V12.7317C1.9998 12.3317 2.2998 11.7317 2.4998 11.2317L2.6998 11.0317Z" fill="#FEC745"/>
    <path fill-rule="evenodd" clip-rule="evenodd" d="M1.4002 13.6318C3.2002 14.3318 4.9002 14.8318 6.7002 15.5318C6.9002 15.7318 6.7002 16.0318 6.7002 16.3318C6.6002 16.4318 6.60019 16.7318 6.4002 16.7318C4.6002 16.4318 2.5002 15.8318 0.800195 15.3318L0.700195 15.2318C0.800195 14.7318 1.0002 14.1318 1.2002 13.6318H1.4002Z" fill="#FEC745"/>
    <path fill-rule="evenodd" clip-rule="evenodd" d="M0.600195 16.4316C2.5002 16.9316 4.20019 17.1316 6.10019 17.6316C6.30019 17.7316 6.2002 18.1316 6.2002 18.4316C6.1002 18.6316 6.1002 18.8316 6.0002 18.9316C4.1002 18.8316 2.1002 18.6316 0.300195 18.3316L0.200195 18.2316C0.200195 17.7316 0.400195 17.1316 0.500195 16.6316L0.600195 16.4316Z" fill="#FEC745"/>
    <path fill-rule="evenodd" clip-rule="evenodd" d="M0.2 19.4316C2.2 19.6316 3.9 19.6316 5.8 19.8316C6.1 19.9316 6 20.3316 6 20.5316C5.9 20.7316 6 20.9316 5.8 21.0316C4 21.2316 1.9 21.2316 0.1 21.2316L0 21.1316C0 20.6316 2.23517e-08 20.0316 0.1 19.5316L0.2 19.4316Z" fill="#FEC745"/>
    <path fill-rule="evenodd" clip-rule="evenodd" d="M0.100015 22.3316C2.10002 22.2316 3.80001 22.0316 5.70002 21.9316C6.00002 22.0316 6.00002 22.4316 6.10002 22.6316C6.10002 22.8316 6.10002 23.0316 6.00002 23.1316C4.20002 23.5316 2.10001 23.9316 0.300015 24.1316L0.200015 24.0316C0.100015 23.5316 1.51023e-05 22.9316 0.100015 22.3316Z" fill="#FEC745"/>
    <path fill-rule="evenodd" clip-rule="evenodd" d="M0.5 25.2317C2.4 24.8317 4.1 24.4317 6 24.0317C6.3 24.0317 6.3 24.4317 6.4 24.7317C6.4 24.9317 6.5 25.1317 6.4 25.2317C4.7 25.9317 2.7 26.5317 0.9 27.0317L0.8 26.9317C0.6 26.4317 0.5 25.8317 0.5 25.2317Z" fill="#FEC745"/>
    <path fill-rule="evenodd" clip-rule="evenodd" d="M1.2998 28.1314C3.1998 27.5314 4.6998 26.8314 6.5998 26.2314C6.8998 26.2314 6.8998 26.6314 7.0998 26.8314C7.0998 27.0314 7.2998 27.2314 7.0998 27.3314C5.4998 28.2314 3.5998 29.1314 1.9998 29.8314L1.8998 29.7314C1.6998 29.3314 1.3998 28.7314 1.2998 28.2314V28.1314Z" fill="#FEC745"/>
    <path fill-rule="evenodd" clip-rule="evenodd" d="M2.5 30.7318C4.3 29.8318 5.7 28.9318 7.5 28.1318C7.8 28.1318 7.9 28.5318 8.1 28.6318C8.1 28.8318 8.3 28.9318 8.2 29.1318C6.7 30.2318 5 31.4318 3.4 32.4318H3.3C3 32.0318 2.7 31.5318 2.5 31.0318V30.7318Z" fill="#FEC745"/>
    <path fill-rule="evenodd" clip-rule="evenodd" d="M4 33.2316C5.6 32.1316 7 31.0316 8.6 29.9316C8.8 29.9316 9 30.2316 9.2 30.4316C9.3 30.6316 9.4 30.7316 9.4 30.9316C8.1 32.2316 6.5 33.6316 5.1 34.8316H5C4.7 34.4316 4.3 33.9316 4 33.5316V33.2316Z" fill="#FEC745"/>
    <path fill-rule="evenodd" clip-rule="evenodd" d="M5.7998 35.5315C7.1998 34.2315 8.39981 32.9315 9.89981 31.6315C10.0998 31.5315 10.3998 31.8315 10.5998 31.9315C10.6998 32.1315 10.8998 32.2315 10.7998 32.4315C9.6998 33.9315 8.2998 35.5315 7.0998 36.8315H6.9998C6.5998 36.5315 6.1998 36.1315 5.7998 35.7315V35.5315Z" fill="#FEC745"/>
    <path fill-rule="evenodd" clip-rule="evenodd" d="M8 37.5317C9.2 36.0317 10.2 34.6317 11.5 33.1317C11.7 33.0317 12 33.3317 12.3 33.3317C12.4 33.4317 12.6 33.5317 12.6 33.7317C11.7 35.4317 10.6 37.1317 9.6 38.6317H9.5C9.1 38.3317 8.6 38.0317 8.2 37.6317L8 37.5317Z" fill="#FEC745"/>
    <path fill-rule="evenodd" clip-rule="evenodd" d="M10.4004 39.2314C11.4004 37.5314 12.2004 36.0314 13.2004 34.3314C13.4004 34.1314 13.7004 34.4314 14.0004 34.4314C14.1004 34.5314 14.4004 34.6314 14.4004 34.8314C13.7004 36.6314 12.9004 38.5314 12.1004 40.1314H12.0004C11.6004 39.9314 11.0004 39.6314 10.6004 39.3314L10.4004 39.2314Z" fill="#FEC745"/>
    <path fill-rule="evenodd" clip-rule="evenodd" d="M13 40.5316C13.8 38.7316 14.3 37.1316 15.1 35.3316C15.3 35.1316 15.6 35.3316 15.9 35.3316C16 35.4316 16.3 35.4316 16.3 35.6316C15.9 37.4316 15.3 39.4316 14.7 41.2316H14.6C14.1 41.1316 13.5 40.9316 13.1 40.6316L13 40.5316Z" fill="#FEC745"/>
    <path fill-rule="evenodd" clip-rule="evenodd" d="M15.7998 41.4316C16.2998 39.5316 16.6998 37.8316 17.1998 35.9316C17.3998 35.7316 17.6998 35.8316 17.9998 35.8316C18.1998 35.9316 18.3998 35.9316 18.3998 36.1316C18.2998 38.0316 17.8998 40.0316 17.5998 41.8316L17.4998 41.9316C16.9998 41.8316 16.3998 41.7316 15.8998 41.6316L15.7998 41.4316Z" fill="#FEC745"/>
    <path fill-rule="evenodd" clip-rule="evenodd" d="M18.7002 41.9318C18.9002 39.9318 19.0002 38.2318 19.3002 36.3318C19.4002 36.1318 19.8002 36.2318 20.1002 36.1318C20.3002 36.2318 20.5002 36.1318 20.6002 36.3318C20.7002 38.2318 20.7002 40.3318 20.6002 42.1318L20.4002 42.2318C19.9002 42.2318 19.3002 42.2318 18.8002 42.1318L18.7002 41.9318Z" fill="#FEC745"/>
    <path fill-rule="evenodd" clip-rule="evenodd" d="M21.6336 42.0509C21.6336 40.0509 21.4336 38.3509 21.4336 36.4509C21.5336 36.1509 21.9336 36.2509 22.1336 36.1509C22.3336 36.1509 22.5336 36.1509 22.6336 36.2509C23.0336 38.0509 23.2336 40.1509 23.4336 41.9509V42.0509C22.9336 42.1509 22.3336 42.1509 21.8336 42.1509L21.6336 42.0509Z" fill="#FEC745"/>
    <path fill-rule="evenodd" clip-rule="evenodd" d="M24.5996 41.8316C24.2996 39.9316 23.8996 38.2316 23.5996 36.2316C23.5996 35.9316 24.0996 35.9316 24.2996 35.8316C24.4996 35.8316 24.6996 35.7316 24.7996 35.9316C25.3996 37.7316 25.9996 39.7316 26.3996 41.4316L26.2996 41.5316C25.7996 41.6316 25.1996 41.8316 24.6996 41.8316H24.5996Z" fill="#FEC745"/>
    <path fill-rule="evenodd" clip-rule="evenodd" d="M27.4002 41.1315C26.8002 39.2315 26.2002 37.6315 25.7002 35.7315C25.7002 35.4315 26.1002 35.4315 26.3002 35.2315C26.5002 35.2315 26.7002 35.1315 26.8002 35.2315C27.7002 36.9315 28.5002 38.8315 29.2002 40.4315L29.1002 40.5315C28.7002 40.7315 28.1002 40.9315 27.6002 41.1315H27.4002Z" fill="#FEC745"/>
    <path fill-rule="evenodd" clip-rule="evenodd" d="M30.2002 40.0316C29.4002 38.2316 28.6002 36.7316 27.7002 34.9316C27.7002 34.6316 28.1002 34.5316 28.2002 34.3316C28.4002 34.3316 28.6002 34.1316 28.7002 34.2316C29.8002 35.7316 30.9002 37.5316 31.8002 39.1316L31.7002 39.2316C31.3002 39.5316 30.7002 39.8316 30.3002 40.0316H30.2002Z" fill="#FEC745"/>
    <path fill-rule="evenodd" clip-rule="evenodd" d="M32.7002 38.6318C31.6002 36.9318 30.6002 35.6318 29.5002 33.9318C29.4002 33.6318 29.8002 33.5318 30.0002 33.3318C30.2002 33.2318 30.3002 33.1318 30.5002 33.1318C31.8002 34.5318 33.1002 36.1318 34.2002 37.5318V37.6318C33.8002 37.9318 33.3002 38.3318 32.9002 38.6318H32.7002Z" fill="#FEC745"/>
    <path fill-rule="evenodd" clip-rule="evenodd" d="M34.9995 36.8318C33.6995 35.3318 32.4996 34.1318 31.1996 32.6318C31.0996 32.3318 31.3996 32.1318 31.5996 31.9318C31.7996 31.8318 31.8996 31.6318 32.0996 31.7318C33.5996 32.9318 35.0996 34.3318 36.3996 35.5318V35.6318C36.0996 36.0318 35.5996 36.4318 35.1996 36.7318L34.9995 36.8318Z" fill="#FEC745"/>
    <path fill-rule="evenodd" clip-rule="evenodd" d="M37.1004 34.7318C35.6004 33.4318 34.3004 32.4318 32.8004 31.1318C32.7004 30.9318 33.0004 30.6318 33.1004 30.4318C33.2004 30.3318 33.3004 30.1318 33.5004 30.1318C35.1004 31.1318 36.8004 32.2318 38.3004 33.3318V33.4318C38.0004 33.8318 37.6004 34.3318 37.3004 34.7318H37.1004Z" fill="#FEC745"/>
    <path fill-rule="evenodd" clip-rule="evenodd" d="M38.7999 32.4315C37.1999 31.3315 35.6999 30.5315 33.9999 29.4315C33.7999 29.2315 34.0999 28.9315 34.1999 28.6315C34.2999 28.5315 34.3999 28.3315 34.5999 28.3315C36.2999 29.0315 38.1999 29.9315 39.7999 30.8315V30.9315C39.5999 31.3315 39.2999 31.9315 38.9999 32.3315L38.7999 32.4315Z" fill="#FEC745"/>
    <path fill-rule="evenodd" clip-rule="evenodd" d="M40.2 29.8315C38.4 29.0315 36.8 28.3315 35 27.5315C34.8 27.3315 35 27.0315 35 26.7315C35.1 26.6315 35.2 26.3315 35.3 26.3315C37.1 26.8315 39.1 27.4315 40.8 28.0315V28.1315C40.7 28.6315 40.4 29.2315 40.2 29.6315V29.8315Z" fill="#FEC745"/>
    <path fill-rule="evenodd" clip-rule="evenodd" d="M41.2998 27.1315C39.3998 26.5315 37.6998 26.1315 35.8998 25.5315C35.6998 25.3315 35.8998 25.0315 35.7998 24.7315C35.8998 24.5315 35.8998 24.3315 36.0998 24.3315C37.9998 24.5315 39.9998 24.9315 41.7998 25.3315L41.8998 25.4315C41.7998 25.9315 41.6998 26.5315 41.4998 27.0315L41.2998 27.1315Z" fill="#FEC745"/>
    <path fill-rule="evenodd" clip-rule="evenodd" d="M41.8996 24.2318C39.9996 23.9318 38.1996 23.7318 36.2996 23.4318C36.0996 23.3318 36.1996 22.9318 36.0996 22.6318C36.1996 22.4318 36.0996 22.2318 36.2996 22.1318C38.1996 22.1318 40.2996 22.1318 42.0996 22.3318L42.1996 22.4318C42.1996 22.9318 42.0996 23.5318 41.9996 24.0318L41.8996 24.2318Z" fill="#FEC745"/>
    <path fill-rule="evenodd" clip-rule="evenodd" d="M42.1002 21.2316H36.5002C36.2002 21.1316 36.3002 20.7316 36.2002 20.5316C36.2002 20.3316 36.2002 20.1316 36.3002 20.0316C38.2002 19.7316 40.2002 19.5316 42.0002 19.4316L42.1002 19.5316C42.2002 20.0316 42.2002 20.6316 42.2002 21.1316L42.1002 21.2316Z" fill="#FEC745"/>
    <path fill-rule="evenodd" clip-rule="evenodd" d="M41.9996 18.3317C39.9996 18.5317 38.3996 18.9317 36.3996 19.1317C36.0996 19.0317 36.0996 18.6317 35.9996 18.4317C35.9996 18.2317 35.8996 18.0317 36.0996 17.9317C37.8996 17.3317 39.8996 16.8317 41.6996 16.5317L41.7996 16.6317C41.8996 17.1317 41.9996 17.7317 42.0996 18.2317L41.9996 18.3317Z" fill="#FEC745"/>
    <path fill-rule="evenodd" clip-rule="evenodd" d="M41.3995 15.4314C39.4995 15.9314 37.8995 16.5314 35.9995 17.0314C35.6995 17.0314 35.6995 16.6314 35.4995 16.4314C35.4995 16.2314 35.3995 16.0314 35.4995 15.9314C37.1995 15.1314 39.0995 14.3314 40.7995 13.7314L40.8995 13.8314C41.0995 14.2314 41.2995 14.9314 41.3995 15.4314Z" fill="#FEC745"/>
    <path fill-rule="evenodd" clip-rule="evenodd" d="M39.1 10.1317C37.4 11.1317 36 12.1317 34.3 13.1317C34 13.2317 33.9 12.8317 33.7 12.6317C33.6 12.4317 33.5 12.3317 33.6 12.1317C35 10.9317 36.7 9.63174 38.1 8.53174H38.2C38.5 8.93174 38.9 9.43174 39.1 9.93174V10.1317Z" fill="#FEC745"/>
    <path fill-rule="evenodd" clip-rule="evenodd" d="M37.4001 7.73145C35.9001 8.93145 34.6001 10.1314 33.1001 11.3314C32.8001 11.4314 32.6001 11.0314 32.4001 10.9314C32.3001 10.7314 32.1001 10.6314 32.2001 10.4314C33.4001 9.03145 34.9001 7.53145 36.2001 6.23145H36.3001C36.6001 6.53145 37.1001 7.03145 37.4001 7.43145V7.73145Z" fill="#FEC745"/>
    <path fill-rule="evenodd" clip-rule="evenodd" d="M35.3996 5.53154C34.0996 6.93154 32.9996 8.33154 31.5996 9.73154C31.3996 9.83154 31.0996 9.53154 30.8996 9.43154C30.7996 9.33154 30.5996 9.13154 30.5996 9.03154C31.5996 7.43154 32.7996 5.73154 33.9996 4.33154H34.0996C34.4996 4.63154 34.9996 5.03154 35.3996 5.33154V5.53154Z" fill="#FEC745"/>
    <path fill-rule="evenodd" clip-rule="evenodd" d="M33.0998 3.73145C31.9998 5.33145 31.0998 6.83145 29.8998 8.43145C29.6998 8.63144 29.3998 8.33145 29.0998 8.23145C28.9998 8.13145 28.7998 8.03145 28.7998 7.83145C29.5998 6.13145 30.5998 4.33145 31.4998 2.73145H31.5998C31.9998 2.93145 32.5998 3.23145 33.0998 3.73145Z" fill="#FEC745"/>
    <path fill-rule="evenodd" clip-rule="evenodd" d="M30.5004 2.23174C29.6004 3.93174 28.9004 5.53174 28.0004 7.33174C27.9004 7.53174 27.5004 7.23174 27.3004 7.23174C27.2004 7.13174 26.9004 7.03174 26.9004 6.93174C27.4004 5.13174 28.2004 3.13174 28.8004 1.53174H28.9004C29.4004 1.73174 29.9004 1.93174 30.4004 2.23174H30.5004Z" fill="#FEC745"/>
    <path fill-rule="evenodd" clip-rule="evenodd" d="M27.8004 1.13174C27.2004 3.03174 26.7004 4.63174 26.1004 6.53174C25.9004 6.73174 25.6004 6.53174 25.3004 6.53174C25.2004 6.43174 24.9004 6.43174 24.9004 6.23174C25.2004 4.33174 25.6004 2.33174 26.1004 0.631738L26.2004 0.531738C26.7004 0.631738 27.3004 0.831738 27.8004 0.931738V1.13174Z" fill="#FEC745"/>
    <path fill-rule="evenodd" clip-rule="evenodd" d="M25.0002 0.431738C24.6002 2.33174 24.4002 4.03174 24.0002 6.03174C23.9002 6.23174 23.5002 6.13174 23.2002 6.13174C23.0002 6.03174 22.8002 6.03174 22.7002 5.93174C22.7002 4.03174 22.9002 1.93174 23.1002 0.131738L23.2002 0.0317383C23.7002 0.0317383 24.3002 0.131738 24.8002 0.231738L25.0002 0.431738Z" fill="#FEC745"/>
    <path fill-rule="evenodd" clip-rule="evenodd" d="M20.0996 35.2314C20.1996 34.0314 20.2996 32.4314 20.3996 31.3314C20.4996 31.2314 20.6996 31.2314 20.7996 31.2314C20.8996 31.2314 20.9996 31.2314 21.0996 31.3314C21.1996 32.4314 21.2996 34.2314 21.2996 35.3314L21.1996 35.4314C20.8996 35.3314 20.4996 35.3314 20.0996 35.2314Z" fill="#22A7AB"/>
    <path fill-rule="evenodd" clip-rule="evenodd" d="M22.0998 35.2318C21.9998 34.0318 21.8998 32.4318 21.7998 31.3318C21.7998 31.1318 22.0998 31.2318 22.1998 31.1318C22.2998 31.1318 22.3998 31.1318 22.4998 31.2318C22.7998 32.3318 23.0998 34.0318 23.1998 35.1318L23.0998 35.2318H22.0998Z" fill="#22A7AB"/>
    <path fill-rule="evenodd" clip-rule="evenodd" d="M32.7996 13.2314C31.7996 13.9314 30.4996 14.8314 29.5996 15.4314C29.3996 15.4314 29.2996 15.2314 29.1996 15.1314C29.1996 15.0314 29.0996 14.9314 29.0996 14.8314C29.8996 14.0314 31.2996 12.9314 32.0996 12.2314H32.1996C32.3996 12.4314 32.5996 12.7314 32.7996 13.0314V13.2314Z" fill="#22A7AB"/>
    <path fill-rule="evenodd" clip-rule="evenodd" d="M19.1996 7.13184C19.2996 8.33184 19.5996 9.83184 19.7996 11.0318C19.7996 11.2318 19.4996 11.1318 19.3996 11.2318H19.0996C18.7996 10.2318 18.2996 8.43184 18.0996 7.33184L18.1996 7.23184C18.3996 7.23184 18.7996 7.13184 19.1996 7.13184Z" fill="#22A7AB"/>
    <path fill-rule="evenodd" clip-rule="evenodd" d="M17.1996 7.53174C17.4996 8.73174 17.9996 10.2317 18.2996 11.3317C18.2996 11.5317 18.0996 11.5317 17.8996 11.6317C17.7996 11.6317 17.6996 11.7317 17.5996 11.6317C17.0996 10.6317 16.4996 9.03174 16.0996 7.93174V7.83174C16.4996 7.73174 16.7996 7.63174 17.1996 7.53174Z" fill="#22A7AB"/>
    <path fill-rule="evenodd" clip-rule="evenodd" d="M15.4004 8.23145C15.9004 9.33145 16.6004 10.7314 17.0004 11.8314C17.0004 12.0314 16.8004 12.0314 16.7004 12.1314C16.6004 12.1314 16.5004 12.2314 16.4004 12.1314C15.8004 11.2314 14.9004 9.63145 14.4004 8.73145V8.63144C14.6004 8.53144 15.0004 8.33145 15.4004 8.23145Z" fill="#22A7AB"/>
    <path fill-rule="evenodd" clip-rule="evenodd" d="M13.7002 9.13184C14.3002 10.1318 15.2002 11.4318 15.8002 12.4318C15.8002 12.6318 15.6002 12.6318 15.5002 12.8318C15.4002 12.8318 15.3002 12.9318 15.2002 12.9318C14.5002 12.1318 13.4002 10.7318 12.7002 9.83184V9.73184C12.9002 9.53184 13.3002 9.33184 13.5002 9.13184H13.7002Z" fill="#22A7AB"/>
    <path fill-rule="evenodd" clip-rule="evenodd" d="M12.1002 10.3315C12.9002 11.2315 13.9002 12.4315 14.6002 13.3315C14.7002 13.4315 14.5002 13.6315 14.4002 13.7315C14.3002 13.7315 14.2002 13.9315 14.1002 13.8315C13.3002 13.1315 12.0002 11.8315 11.2002 11.1315V11.0315L11.9002 10.3315H12.1002Z" fill="#22A7AB"/>
    <path fill-rule="evenodd" clip-rule="evenodd" d="M10.7004 11.6318C11.6004 12.4318 12.8004 13.4318 13.6004 14.2318C13.7004 14.3318 13.5004 14.5318 13.4004 14.6318C13.3004 14.7318 13.3004 14.8318 13.1004 14.8318C12.2004 14.2318 10.7004 13.2318 9.90039 12.5318V12.4318C10.1004 12.2318 10.3004 11.9318 10.5004 11.6318H10.7004Z" fill="#22A7AB"/>
    <path fill-rule="evenodd" clip-rule="evenodd" d="M9.5 13.2314C10.5 13.9314 11.8 14.7314 12.8 15.4314C12.9 15.5314 12.7 15.7314 12.7 15.8314C12.6 15.9314 12.6 16.0314 12.5 16.0314C11.5 15.6314 9.9 14.7314 9 14.2314V14.1314C9 13.8314 9.2 13.5314 9.4 13.2314H9.5Z" fill="#22A7AB"/>
    <path fill-rule="evenodd" clip-rule="evenodd" d="M8.5 14.9316C9.6 15.4316 11 16.1316 12 16.6316C12.1 16.7316 12 16.9316 12 17.1316C11.9 17.2316 11.9 17.3316 11.8 17.3316C10.8 17.0316 9.1 16.4316 8 16.0316V15.9316C8.1 15.6316 8.2 15.2316 8.5 14.9316Z" fill="#22A7AB"/>
    <path fill-rule="evenodd" clip-rule="evenodd" d="M7.6998 16.7314C8.7998 17.1314 10.3998 17.5314 11.3998 17.9314C11.4998 18.0314 11.3998 18.2314 11.3998 18.4314C11.2998 18.5314 11.2998 18.6314 11.1998 18.6314C10.0998 18.4314 8.3998 18.1314 7.2998 17.8314V17.7314C7.3998 17.4314 7.4998 17.1314 7.6998 16.7314Z" fill="#22A7AB"/>
    <path fill-rule="evenodd" clip-rule="evenodd" d="M7.30045 18.6318C8.50045 18.8318 10.0005 19.1318 11.2005 19.3318C11.3005 19.4318 11.3005 19.6318 11.3005 19.7318C11.3005 19.8318 11.3005 19.9318 11.2005 20.0318C10.1005 20.0318 8.30045 19.9318 7.20045 19.8318V19.7318C7.10045 19.4318 7.10045 19.0318 7.30045 18.6318Z" fill="#22A7AB"/>
    <path fill-rule="evenodd" clip-rule="evenodd" d="M7.1 20.6318C8.3 20.7318 9.9 20.7318 11 20.7318C11.1 20.8318 11.1 21.0318 11.1 21.1318C11.1 21.2318 11.1 21.3318 11 21.4318C9.9 21.5318 8.1 21.7318 7 21.7318C7 21.4318 7 21.0318 7.1 20.6318Z" fill="#22A7AB"/>
    <path fill-rule="evenodd" clip-rule="evenodd" d="M7.09961 22.6314C8.29961 22.5314 9.89961 22.3314 10.9996 22.2314C11.1996 22.2314 11.0996 22.5314 11.1996 22.6314C11.1996 22.7314 11.1996 22.8314 11.0996 22.9314C10.0996 23.2314 8.29961 23.6314 7.19961 23.8314L7.09961 23.7314C7.19961 23.4314 7.09961 23.0314 7.09961 22.6314Z" fill="#22A7AB"/>
    <path fill-rule="evenodd" clip-rule="evenodd" d="M7.5 24.5317C8.7 24.2317 10.2 23.8317 11.3 23.5317C11.5 23.5317 11.5 23.8317 11.6 23.9317C11.6 24.0317 11.7 24.1317 11.6 24.2317C10.6 24.6317 8.9 25.2317 7.9 25.6317H7.8C7.6 25.3317 7.5 24.9317 7.5 24.5317Z" fill="#22A7AB"/>
    <path fill-rule="evenodd" clip-rule="evenodd" d="M8.09961 26.4316C9.19961 26.0316 10.6996 25.3316 11.6996 24.9316C11.8996 24.9316 11.8996 25.1316 11.9996 25.2316C11.9996 25.3316 12.0996 25.4316 11.9996 25.5316C11.0996 26.1316 9.49961 26.9316 8.49961 27.4316H8.39961C8.29961 27.1316 8.09961 26.8316 8.09961 26.4316Z" fill="#22A7AB"/>
    <path fill-rule="evenodd" clip-rule="evenodd" d="M8.90039 28.1318C10.0004 27.5318 11.3004 26.7318 12.3004 26.1318C12.5004 26.1318 12.5004 26.3318 12.7004 26.4318C12.7004 26.5318 12.8004 26.6318 12.8004 26.7318C12.0004 27.4318 10.5004 28.4318 9.60039 29.1318H9.50039C9.30039 28.9318 9.10039 28.5318 9.00039 28.3318L8.90039 28.1318Z" fill="#22A7AB"/>
    <path fill-rule="evenodd" clip-rule="evenodd" d="M10 29.8315C11 29.1315 12.2 28.1315 13.1 27.4315C13.2 27.3315 13.4 27.6315 13.5 27.6315C13.5 27.7315 13.7 27.8315 13.6 27.9315C12.9 28.7315 11.6 29.9315 10.8 30.7315H10.7C10.5 30.5315 10.2 30.2315 10 29.9315V29.8315Z" fill="#22A7AB"/>
    <path fill-rule="evenodd" clip-rule="evenodd" d="M11.2998 31.2316C12.1998 30.3316 13.1998 29.2316 13.9998 28.4316C14.0998 28.3316 14.2998 28.5316 14.3998 28.6316C14.4998 28.7316 14.5998 28.8316 14.5998 28.9316C13.9998 29.8316 12.8998 31.2316 12.1998 32.1316H12.0998C11.8998 31.9316 11.5998 31.7316 11.2998 31.4316V31.2316Z" fill="#22A7AB"/>
    <path fill-rule="evenodd" clip-rule="evenodd" d="M12.7998 32.5317C13.4998 31.5317 14.3998 30.2317 15.0998 29.3317C15.1998 29.2317 15.3998 29.4317 15.4998 29.4317C15.5998 29.5317 15.6998 29.5317 15.6998 29.6317C15.1998 30.6317 14.2998 32.1317 13.6998 33.1317H13.5998C13.2998 33.0317 12.9998 32.7317 12.7998 32.5317Z" fill="#22A7AB"/>
    <path fill-rule="evenodd" clip-rule="evenodd" d="M14.5 33.5317C15.1 32.4317 15.8 31.0317 16.3 30.0317C16.4 29.9317 16.6 30.0317 16.8 30.1317C16.8 30.2317 17 30.2317 17 30.3317C16.7 31.3317 16 33.0317 15.5 34.0317H15.4C15.2 34.0317 14.8 33.8317 14.5 33.5317Z" fill="#22A7AB"/>
    <path fill-rule="evenodd" clip-rule="evenodd" d="M16.2998 34.3318C16.6998 33.2318 17.1998 31.7318 17.5998 30.6318C17.6998 30.5318 17.8998 30.6318 18.0998 30.6318C18.1998 30.7318 18.2998 30.7318 18.2998 30.8318C18.0998 31.9318 17.6998 33.6318 17.3998 34.7318H17.2998C16.9998 34.7318 16.5998 34.5318 16.2998 34.3318Z" fill="#22A7AB"/>
    <path fill-rule="evenodd" clip-rule="evenodd" d="M18.2002 34.9317C18.5002 33.7317 18.8002 32.2317 19.0002 31.1317C19.1002 31.0317 19.3002 31.1317 19.5002 31.0317C19.6002 31.0317 19.7002 31.0317 19.8002 31.1317C19.8002 32.2317 19.6002 34.0317 19.4002 35.1317H19.3002C18.9002 35.1317 18.5002 35.0317 18.2002 34.9317Z" fill="#22A7AB"/>
    <path fill-rule="evenodd" clip-rule="evenodd" d="M24.0998 34.9317C23.8998 33.7317 23.4998 32.2317 23.2998 31.1317C23.2998 30.9317 23.5998 30.9317 23.6998 30.9317C23.7998 30.9317 23.8998 30.8317 23.9998 30.9317C24.3998 31.9317 24.8998 33.6317 25.2998 34.7317L25.1998 34.8316C24.8998 34.8316 24.4998 34.9317 24.0998 34.9317Z" fill="#22A7AB"/>
    <path fill-rule="evenodd" clip-rule="evenodd" d="M26.0002 34.3316C25.6002 33.2316 25.0002 31.7316 24.7002 30.6316C24.7002 30.4316 24.9002 30.4316 25.0002 30.3316C25.1002 30.3316 25.2002 30.2316 25.3002 30.3316C25.8002 31.2316 26.6002 32.9316 27.1002 33.9316V34.0316C26.8002 34.1316 26.5002 34.3316 26.2002 34.4316L26.0002 34.3316Z" fill="#22A7AB"/>
    <path fill-rule="evenodd" clip-rule="evenodd" d="M27.7004 33.5318C27.2004 32.4318 26.4004 31.1318 25.9004 30.0318C25.9004 29.8318 26.1004 29.8318 26.2004 29.7318C26.3004 29.7318 26.4004 29.6318 26.5004 29.6318C27.2004 30.5318 28.2004 32.0318 28.8004 32.9318V33.0318C28.6004 33.2318 28.2004 33.4318 27.9004 33.5318H27.7004Z" fill="#22A7AB"/>
    <path fill-rule="evenodd" clip-rule="evenodd" d="M29.3996 32.5315C28.6996 31.5315 27.6996 30.3315 27.0996 29.3315C27.0996 29.1315 27.2996 29.0315 27.2996 28.9315C27.3996 28.9315 27.4996 28.8315 27.5996 28.8315C28.3996 29.6315 29.5996 30.9315 30.2996 31.7315V31.8315C30.0996 32.0315 29.7996 32.2315 29.4996 32.4315L29.3996 32.5315Z" fill="#22A7AB"/>
    <path fill-rule="evenodd" clip-rule="evenodd" d="M30.9001 31.3317C30.1001 30.4317 28.9001 29.3317 28.2001 28.5317C28.1001 28.4317 28.3001 28.2317 28.4001 28.1317C28.5001 28.0317 28.6001 27.9317 28.7001 28.0317C29.6001 28.6317 30.9001 29.8317 31.8001 30.5317V30.6317L31.1001 31.3317H30.9001Z" fill="#22A7AB"/>
    <path fill-rule="evenodd" clip-rule="evenodd" d="M32.2003 29.8315C31.3003 29.0315 30.0003 28.1315 29.1003 27.4315C29.0003 27.3315 29.2003 27.1315 29.2003 27.0315C29.3003 26.9315 29.3003 26.8315 29.4003 26.8315C30.4003 27.3315 31.9003 28.3315 32.8003 28.9315V29.0315C32.6003 29.3315 32.4003 29.6315 32.2003 29.8315Z" fill="#22A7AB"/>
    <path fill-rule="evenodd" clip-rule="evenodd" d="M33.2998 28.2318C32.2998 27.6318 30.8998 26.8318 29.8998 26.3318C29.7998 26.2318 29.8998 26.0318 29.9998 25.8318C30.0998 25.7318 30.0998 25.6318 30.1998 25.6318C31.1998 26.0318 32.8998 26.7318 33.8998 27.2318V27.3318C33.7998 27.5318 33.5998 27.9318 33.2998 28.2318Z" fill="#22A7AB"/>
    <path fill-rule="evenodd" clip-rule="evenodd" d="M34.2001 26.4314C33.1001 25.9314 31.6001 25.4314 30.6001 24.9314C30.5001 24.8314 30.6001 24.6314 30.6001 24.4314C30.7001 24.3314 30.7001 24.2314 30.8001 24.2314C31.9001 24.4314 33.6001 24.9314 34.6001 25.3314V25.4314C34.5001 25.7314 34.4001 26.1314 34.2001 26.4314Z" fill="#22A7AB"/>
    <path fill-rule="evenodd" clip-rule="evenodd" d="M34.8004 24.5315C33.6004 24.2315 32.1004 23.9315 31.0004 23.6315C30.9004 23.5315 31.0004 23.3315 30.9004 23.1315C30.9004 23.0315 30.9004 22.9315 31.0004 22.8315C32.1004 22.9315 33.9004 23.1315 34.9004 23.3315V23.4315C35.0004 23.8315 35.0004 24.2315 34.8004 24.5315Z" fill="#22A7AB"/>
    <path fill-rule="evenodd" clip-rule="evenodd" d="M35.0996 22.6315C33.8996 22.5315 32.2996 22.3315 31.1996 22.2315C31.0996 22.1315 31.0996 21.9315 31.0996 21.8315C31.0996 21.7315 31.0996 21.6315 31.1996 21.5315C32.2996 21.4315 34.0996 21.4315 35.1996 21.5315L35.2996 21.6315C35.2996 21.8315 35.1996 22.2315 35.0996 22.6315Z" fill="#22A7AB"/>
    <path fill-rule="evenodd" clip-rule="evenodd" d="M35.1996 20.6316C33.9996 20.6316 32.3996 20.7316 31.2996 20.7316C31.0996 20.7316 31.1996 20.4316 31.0996 20.3316C31.0996 20.2316 31.0996 20.1316 31.1996 20.0316C32.2996 19.8316 33.9996 19.5316 35.0996 19.4316L35.1996 19.5316C35.1996 19.8316 35.2996 20.2316 35.1996 20.6316Z" fill="#22A7AB"/>
    <path fill-rule="evenodd" clip-rule="evenodd" d="M35.0004 18.6317C33.8004 18.8317 32.3004 19.1317 31.1004 19.3317C30.9004 19.3317 30.9004 19.0317 30.9004 18.9317C30.9004 18.8317 30.9004 18.7317 30.9004 18.6317C31.9004 18.2317 33.6004 17.7317 34.7004 17.5317L34.8004 17.6317C34.9004 17.8317 35.0004 18.2317 35.0004 18.6317Z" fill="#22A7AB"/>
    <path fill-rule="evenodd" clip-rule="evenodd" d="M34.4995 16.7318C33.2995 17.1318 31.8995 17.6318 30.7995 17.9318C30.5995 17.9318 30.5995 17.7318 30.4995 17.5318C30.4995 17.4318 30.3995 17.3318 30.4995 17.2318C31.4995 16.7318 33.0995 16.0318 34.0995 15.6318H34.1995C34.2995 15.9318 34.4995 16.2318 34.5995 16.5318L34.4995 16.7318Z" fill="#22A7AB"/>
    <path fill-rule="evenodd" clip-rule="evenodd" d="M33.8004 14.9316C32.7004 15.4316 31.3004 16.1316 30.3004 16.6316C30.1004 16.6316 30.1004 16.4316 30.0004 16.3316C30.0004 16.2316 29.9004 16.1316 29.9004 16.0316C30.8004 15.4316 32.3004 14.4316 33.3004 13.9316H33.4004C33.6004 14.1316 33.8004 14.5316 33.8004 14.9316Z" fill="#22A7AB"/>
    <path fill-rule="evenodd" clip-rule="evenodd" d="M31.5999 11.7315C30.6999 12.5315 29.5999 13.6315 28.6999 14.3315C28.5999 14.4315 28.3999 14.2315 28.2999 14.1315C28.2999 14.0315 28.0999 13.9315 28.1999 13.8315C28.8999 12.9315 30.0999 11.6315 30.7999 10.8315H30.8999L31.5999 11.5315V11.7315Z" fill="#22A7AB"/>
    <path fill-rule="evenodd" clip-rule="evenodd" d="M30.1996 10.3314C29.3996 11.2314 28.3996 12.4314 27.6996 13.3314C27.5996 13.4314 27.3996 13.2314 27.2996 13.2314C27.1996 13.1314 27.0996 13.1314 27.0996 13.0314C27.5996 12.1314 28.6996 10.6314 29.2996 9.73145H29.3996C29.5996 9.93145 29.9996 10.1314 30.1996 10.3314Z" fill="#22A7AB"/>
    <path fill-rule="evenodd" clip-rule="evenodd" d="M28.6004 9.13174C27.9004 10.1317 27.2004 11.5317 26.5004 12.4317C26.4004 12.5317 26.2004 12.3317 26.1004 12.3317C26.0004 12.2317 25.9004 12.2317 25.9004 12.1317C26.3004 11.1317 27.1004 9.53174 27.6004 8.53174H27.7004C28.0004 8.63174 28.3004 8.83174 28.6004 9.03174V9.13174Z" fill="#22A7AB"/>
    <path fill-rule="evenodd" clip-rule="evenodd" d="M26.8996 8.23154C26.3996 9.33154 25.7996 10.8315 25.2996 11.8315C25.1996 11.9315 24.9996 11.8315 24.7996 11.8315C24.6996 11.7315 24.5996 11.7315 24.5996 11.6315C24.8996 10.5315 25.3996 8.83154 25.7996 7.83154H25.8996C26.1996 7.83154 26.5996 8.03154 26.8996 8.23154Z" fill="#22A7AB"/>
    <path fill-rule="evenodd" clip-rule="evenodd" d="M24.9996 7.63144C24.5996 8.83144 24.2996 10.3314 23.8996 11.4314C23.7996 11.5314 23.5996 11.4314 23.3996 11.4314C23.2996 11.4314 23.1996 11.3314 23.0996 11.2314C23.1996 10.1314 23.4996 8.43145 23.7996 7.33145L23.9996 7.23145C24.2996 7.33145 24.6996 7.43144 24.9996 7.63144Z" fill="#22A7AB"/>
    <path fill-rule="evenodd" clip-rule="evenodd" d="M23.1004 7.13164C22.9004 8.33164 22.7004 9.93164 22.6004 11.0316C22.5004 11.1316 22.3004 11.1316 22.2004 11.1316C22.1004 11.1316 22.0004 11.1316 21.9004 11.0316C21.9004 9.93164 21.9004 8.13164 22.0004 7.03164L22.1004 6.93164C22.4004 7.03164 22.7004 7.03164 23.1004 7.13164Z" fill="#22A7AB"/>
    <path fill-rule="evenodd" clip-rule="evenodd" d="M21.1 7.03175V10.9317C21 11.0317 20.8 11.0317 20.7 11.1317C20.6 11.1317 20.5 11.1317 20.4 11.0317C20.2 9.93175 20 8.13175 20 7.03175C20.3 7.03175 20.7 6.93175 21.1 7.03175Z" fill="#22A7AB"/>
    <path fill-rule="evenodd" clip-rule="evenodd" d="M20.5996 30.1318C20.6996 29.2318 20.6996 28.6318 20.7996 27.7318C20.8996 27.6318 21.0996 27.6318 21.1996 27.6318C21.2996 27.6318 21.3996 27.6318 21.4996 27.7318C21.5996 28.6318 21.5996 29.3318 21.5996 30.2318H21.4996C21.2996 30.1318 20.9996 30.1318 20.5996 30.1318Z" fill="#D9333A"/>
    <path fill-rule="evenodd" clip-rule="evenodd" d="M26.1002 13.5317C25.6002 14.3317 25.3002 14.7317 24.8002 15.5317C24.7002 15.6317 24.5002 15.4317 24.4002 15.4317C24.3002 15.3317 24.2002 15.3317 24.2002 15.2317C24.6002 14.4317 24.9002 13.7317 25.3002 13.0317H25.4002C25.5002 13.1317 25.8002 13.2317 26.1002 13.5317Z" fill="#D9333A"/>
    <path fill-rule="evenodd" clip-rule="evenodd" d="M24.6996 12.7315C24.2996 13.5315 24.0996 14.1315 23.6996 14.9315C23.5996 15.0315 23.3996 14.9315 23.2996 14.9315C23.1996 14.8315 23.0996 14.8315 23.0996 14.7315C23.2996 13.8315 23.4996 13.1315 23.7996 12.3315H23.8996C24.0996 12.4315 24.3996 12.5315 24.6996 12.7315Z" fill="#D9333A"/>
    <path fill-rule="evenodd" clip-rule="evenodd" d="M23.2 12.2317C23 13.1317 22.9 13.6317 22.6 14.6317C22.5 14.7317 22.3 14.6317 22.2 14.6317C22.1 14.6317 22 14.6317 22 14.5317C22.1 13.6317 22.2 12.9317 22.3 12.0317H22.4C22.6 12.0317 22.9 12.1317 23.2 12.2317Z" fill="#D9333A"/>
    <path fill-rule="evenodd" clip-rule="evenodd" d="M21.5996 12.0316C21.4996 12.9316 21.4996 13.5316 21.3996 14.4316C21.2996 14.5316 21.0996 14.5316 20.9996 14.5316C20.8996 14.5316 20.7996 14.5316 20.6996 14.4316C20.5996 13.5316 20.5996 12.8316 20.5996 11.9316H20.6996C20.9996 11.9316 21.2996 11.9316 21.5996 12.0316Z" fill="#D9333A"/>
    <path fill-rule="evenodd" clip-rule="evenodd" d="M20 12.1318C20.1 13.0318 20.2 13.6318 20.3 14.5318C20.3 14.6318 20.1 14.6318 19.9 14.7318H19.6C19.3 13.8318 19.2 13.1318 19 12.3318V12.2318C19.4 12.1318 19.7 12.0318 20 12.1318Z" fill="#D9333A"/>
    <path fill-rule="evenodd" clip-rule="evenodd" d="M18.4996 12.4316C18.6996 13.3316 18.8996 13.8316 19.1996 14.7316C19.1996 14.8316 18.9996 14.9316 18.8996 14.9316C18.7996 14.9316 18.6996 15.0316 18.5996 14.9316C18.1996 14.1316 17.8996 13.4316 17.5996 12.6316V12.5316C17.8996 12.5316 18.1996 12.4316 18.4996 12.4316Z" fill="#D9333A"/>
    <path fill-rule="evenodd" clip-rule="evenodd" d="M16.9996 13.0317C17.3996 13.8317 17.6996 14.3317 18.0996 15.2317C18.0996 15.3317 17.8996 15.4317 17.7996 15.5317C17.6996 15.5317 17.5996 15.6317 17.4996 15.6317C16.9996 14.9317 16.5996 14.3317 16.0996 13.5317V13.4317C16.3996 13.2317 16.6996 13.1317 16.9996 13.0317Z" fill="#D9333A"/>
    <path fill-rule="evenodd" clip-rule="evenodd" d="M15.7 13.8315C16.2 14.6315 16.6 15.0315 17.1 15.8315C17.1 15.9315 16.9 16.0315 16.9 16.1315C16.8 16.1315 16.7 16.2315 16.7 16.2315C16 15.6315 15.6 15.0315 15 14.4315V14.3315C15.1 14.2315 15.4 14.0315 15.7 13.8315Z" fill="#D9333A"/>
    <path fill-rule="evenodd" clip-rule="evenodd" d="M14.4998 14.9316C15.1998 15.6316 15.5998 15.9316 16.1998 16.6316C16.2998 16.7316 16.0998 16.9316 15.9998 17.0316C15.8998 17.1316 15.8998 17.2316 15.7998 17.1316C14.9998 16.6316 14.4998 16.2316 13.7998 15.6316V15.5316C13.9998 15.3316 14.2998 15.1316 14.4998 14.9316Z" fill="#D9333A"/>
    <path fill-rule="evenodd" clip-rule="evenodd" d="M13.5 16.1318C14.3 16.6318 14.7 16.9318 15.5 17.4318C15.6 17.5318 15.4 17.7318 15.4 17.8318C15.3 17.9318 15.3 18.0318 15.2 18.0318C14.4 17.6318 13.7 17.3318 13 16.9318V16.8318C13.2 16.6318 13.3 16.3318 13.5 16.1318Z" fill="#D9333A"/>
    <path fill-rule="evenodd" clip-rule="evenodd" d="M12.8004 17.5317C13.6004 17.9317 14.2004 18.1317 15.0004 18.5317C15.1004 18.6317 15.0004 18.8317 15.0004 18.9317C14.9004 19.0317 14.9004 19.1317 14.8004 19.1317C13.9004 18.9317 13.2004 18.7317 12.4004 18.4317V18.3317C12.5004 18.1317 12.6004 17.8317 12.8004 17.5317Z" fill="#D9333A"/>
    <path fill-rule="evenodd" clip-rule="evenodd" d="M12.2996 19.0317C13.1996 19.2317 13.6996 19.3317 14.6996 19.6317C14.7996 19.7317 14.6996 19.9317 14.6996 20.0317C14.6996 20.1317 14.6996 20.2317 14.5996 20.2317C13.6996 20.1317 12.9996 20.0317 12.0996 19.9317V19.8317C12.0996 19.6317 12.1996 19.3317 12.2996 19.0317Z" fill="#D9333A"/>
    <path fill-rule="evenodd" clip-rule="evenodd" d="M12.1 20.5317C13 20.6317 13.6 20.6317 14.5 20.7317C14.6 20.8317 14.6 21.0317 14.6 21.1317C14.6 21.2317 14.6 21.3317 14.5 21.4317C13.6 21.5317 12.9 21.5317 12 21.5317V21.4317C12 21.2317 12 20.9317 12.1 20.5317Z" fill="#D9333A"/>
    <path fill-rule="evenodd" clip-rule="evenodd" d="M12.1996 22.1315C13.0996 22.0315 13.6996 21.9315 14.5996 21.8315C14.6996 21.8315 14.6996 22.0315 14.7996 22.2315V22.5315C13.8996 22.8315 13.1996 22.9315 12.3996 23.1315H12.2996C12.1996 22.8315 12.0996 22.5315 12.1996 22.1315Z" fill="#D9333A"/>
    <path fill-rule="evenodd" clip-rule="evenodd" d="M12.5 23.7317C13.4 23.5317 13.9 23.3317 14.8 23.0317C14.9 23.0317 15 23.2317 15 23.3317C15 23.4317 15.1 23.5317 15 23.6317C14.2 24.0317 13.5 24.3317 12.7 24.6317H12.6C12.6 24.3317 12.5 24.0317 12.5 23.7317Z" fill="#D9333A"/>
    <path fill-rule="evenodd" clip-rule="evenodd" d="M13.0996 25.1317C13.8996 24.7317 14.3996 24.4317 15.2996 24.0317C15.3996 24.0317 15.4996 24.2317 15.5996 24.3317C15.5996 24.4317 15.6996 24.5317 15.6996 24.6317C14.9996 25.1317 14.3996 25.5317 13.5996 26.0317H13.4996C13.2996 25.7317 13.1996 25.4317 13.0996 25.1317Z" fill="#D9333A"/>
    <path fill-rule="evenodd" clip-rule="evenodd" d="M13.9004 26.5318C14.7004 26.0318 15.1004 25.6318 15.9004 25.1318C16.0004 25.1318 16.1004 25.3318 16.2004 25.3318C16.2004 25.4318 16.3004 25.5318 16.3004 25.5318C15.7004 26.2318 15.1004 26.6318 14.5004 27.2318H14.4004C14.2004 27.0318 14.0004 26.8318 13.9004 26.5318Z" fill="#D9333A"/>
    <path fill-rule="evenodd" clip-rule="evenodd" d="M14.9004 27.6316C15.6004 26.9316 15.9004 26.5316 16.6004 25.9316C16.7004 25.8316 16.9004 26.0316 17.0004 26.1316C17.1004 26.2316 17.2004 26.2316 17.1004 26.3316C16.6004 27.1316 16.2004 27.6316 15.6004 28.3316H15.5004C15.4004 28.1316 15.1004 27.9316 14.9004 27.6316Z" fill="#D9333A"/>
    <path fill-rule="evenodd" clip-rule="evenodd" d="M16.2002 28.6315C16.7002 27.8315 17.0002 27.4315 17.5002 26.6315C17.6002 26.5315 17.8002 26.7315 17.9002 26.7315C18.0002 26.8315 18.1002 26.8315 18.1002 26.9315C17.7002 27.7315 17.4002 28.4315 17.0002 29.1315H16.9002C16.7002 29.0315 16.4002 28.8315 16.2002 28.6315Z" fill="#D9333A"/>
    <path fill-rule="evenodd" clip-rule="evenodd" d="M17.5996 29.4315C17.9996 28.6315 18.1996 28.0315 18.5996 27.2315C18.6996 27.1315 18.8996 27.2315 18.9996 27.2315C19.0996 27.3315 19.1996 27.3315 19.1996 27.4315C18.9996 28.3315 18.7996 29.0315 18.4996 29.8315H18.3996C18.0996 29.6315 17.7996 29.5315 17.5996 29.4315Z" fill="#D9333A"/>
    <path fill-rule="evenodd" clip-rule="evenodd" d="M19.0996 29.8317C19.2996 28.9317 19.3996 28.4317 19.6996 27.4317C19.7996 27.3317 19.9996 27.4317 20.0996 27.4317C20.1996 27.4317 20.2996 27.4316 20.2996 27.5316C20.1996 28.4316 20.0996 29.1317 19.9996 30.0317H19.8996C19.6996 30.0317 19.3996 30.0317 19.0996 29.8317Z" fill="#D9333A"/>
    <path fill-rule="evenodd" clip-rule="evenodd" d="M22.2004 30.0316C22.1004 29.1316 22.0004 28.5316 21.9004 27.6316C21.9004 27.5316 22.1004 27.5316 22.3004 27.4316H22.6004C22.9004 28.3316 23.0004 29.0316 23.2004 29.8316V29.9316C22.9004 30.0316 22.5004 30.0316 22.2004 30.0316Z" fill="#D9333A"/>
    <path fill-rule="evenodd" clip-rule="evenodd" d="M23.7996 29.7315C23.5996 28.8315 23.3996 28.3315 23.0996 27.4315C23.0996 27.3315 23.2996 27.2315 23.3996 27.2315C23.4996 27.2315 23.5996 27.1315 23.6996 27.2315C24.0996 28.0315 24.3996 28.7315 24.6996 29.5315V29.6315C24.3996 29.5315 24.0996 29.6315 23.7996 29.7315Z" fill="#D9333A"/>
    <path fill-rule="evenodd" clip-rule="evenodd" d="M25.1996 29.1317C24.7996 28.3317 24.4996 27.8317 24.0996 26.9317C24.0996 26.8317 24.2996 26.7317 24.3996 26.6317C24.4996 26.6317 24.5996 26.5317 24.6996 26.5317C25.1996 27.2317 25.5996 27.8317 26.0996 28.6317V28.7317C25.7996 28.8317 25.4996 29.0317 25.1996 29.1317Z" fill="#D9333A"/>
    <path fill-rule="evenodd" clip-rule="evenodd" d="M26.4996 28.3316C25.9996 27.5316 25.5996 27.1316 25.0996 26.3316C25.0996 26.2316 25.2996 26.1316 25.2996 26.0316C25.3996 26.0316 25.4996 25.9316 25.4996 25.9316C26.1996 26.5316 26.5996 27.1316 27.1996 27.7316V27.8316C27.0996 27.9316 26.7996 28.1316 26.4996 28.3316Z" fill="#D9333A"/>
    <path fill-rule="evenodd" clip-rule="evenodd" d="M27.6999 27.2317C26.9999 26.5317 26.5999 26.2317 25.9999 25.5317C25.8999 25.4317 26.0999 25.2317 26.1999 25.1317C26.2999 25.0317 26.2999 24.9317 26.3999 25.0317C27.1999 25.5317 27.6999 25.9317 28.3999 26.5317V26.6317C28.1999 26.8317 27.9999 27.0317 27.6999 27.2317Z" fill="#D9333A"/>
    <path fill-rule="evenodd" clip-rule="evenodd" d="M28.6999 26.0318C27.8999 25.5318 27.4999 25.2318 26.6999 24.7318C26.5999 24.6318 26.7999 24.4318 26.7999 24.3318C26.8999 24.2318 26.8999 24.1318 26.9999 24.1318C27.7999 24.5318 28.4999 24.8318 29.1999 25.2318V25.3318C29.0999 25.5318 28.8999 25.7318 28.6999 26.0318Z" fill="#D9333A"/>
    <path fill-rule="evenodd" clip-rule="evenodd" d="M29.3997 24.6317C28.5997 24.2317 27.9997 24.0317 27.1997 23.6317C27.0997 23.5317 27.1997 23.3317 27.1997 23.2317C27.2997 23.1317 27.2997 23.0317 27.3997 23.0317C28.2997 23.2317 28.9997 23.4317 29.7997 23.7317V23.8317C29.6997 24.0317 29.5997 24.3317 29.3997 24.6317Z" fill="#D9333A"/>
    <path fill-rule="evenodd" clip-rule="evenodd" d="M29.8995 23.1316C28.9995 22.9316 28.4995 22.8316 27.4995 22.5316C27.3995 22.4316 27.4995 22.2316 27.4995 22.1316C27.4995 22.0316 27.4995 21.9316 27.5995 21.9316C28.4995 22.0316 29.1995 22.1316 30.0995 22.2316V22.3316C30.0995 22.5316 30.0995 22.8316 29.8995 23.1316Z" fill="#D9333A"/>
    <path fill-rule="evenodd" clip-rule="evenodd" d="M30.0996 21.5317C29.1996 21.4317 28.5996 21.4317 27.6996 21.3317C27.5996 21.2317 27.5996 21.0317 27.5996 20.9317C27.5996 20.8317 27.5996 20.7317 27.6996 20.6317C28.5996 20.5317 29.2996 20.5317 30.1996 20.5317V20.6317C30.1996 20.9317 30.1996 21.2317 30.0996 21.5317Z" fill="#D9333A"/>
    <path fill-rule="evenodd" clip-rule="evenodd" d="M30.1 19.9316C29.2 20.0316 28.6 20.1316 27.7 20.2316C27.6 20.2316 27.6 20.0316 27.5 19.8316V19.5316C28.4 19.2316 29.1 19.1316 29.9 18.9316H30C30.1 19.3316 30.1 19.6316 30.1 19.9316Z" fill="#D9333A"/>
    <path fill-rule="evenodd" clip-rule="evenodd" d="M29.8003 18.4317C28.9003 18.6317 28.4003 18.8317 27.5003 19.1317C27.4003 19.1317 27.3003 18.9317 27.3003 18.8317C27.3003 18.7317 27.2003 18.6317 27.3003 18.5317C28.1003 18.1317 28.8003 17.8317 29.6003 17.5317H29.7003C29.6003 17.8317 29.7003 18.1317 29.8003 18.4317Z" fill="#D9333A"/>
    <path fill-rule="evenodd" clip-rule="evenodd" d="M29.1996 16.9317C28.3996 17.3317 27.8996 17.6317 26.9996 18.0317C26.8996 18.0317 26.7996 17.8317 26.6996 17.7317C26.6996 17.6317 26.5996 17.5317 26.5996 17.4317C27.2996 16.9317 27.8996 16.5317 28.6996 16.0317H28.7996C28.8996 16.3317 29.0996 16.6317 29.1996 16.9317Z" fill="#D9333A"/>
    <path fill-rule="evenodd" clip-rule="evenodd" d="M28.3004 15.6316C27.5004 16.1316 27.1004 16.5316 26.3004 17.0316C26.2004 17.0316 26.1004 16.8316 26.0004 16.8316C26.0004 16.7316 25.9004 16.6316 25.9004 16.6316C26.5004 15.9316 27.1004 15.5316 27.7004 14.9316H27.8004C28.0004 15.1316 28.2004 15.3316 28.3004 15.6316Z" fill="#D9333A"/>
    <path fill-rule="evenodd" clip-rule="evenodd" d="M27.3 14.4314C26.6 15.1314 26.3 15.5314 25.6 16.1314C25.5 16.2314 25.3 16.0314 25.2 15.9314C25.1 15.8314 25 15.8314 25.1 15.7314C25.6 14.9314 26 14.4314 26.6 13.7314H26.7C26.9 14.0314 27.1 14.2314 27.3 14.4314Z" fill="#D9333A"/>
</svg>
